<?xml version="1.0" encoding="utf-8"?>
<!-- Generator: Adobe Illustrator 26.1.0, SVG Export Plug-In . SVG Version: 6.00 Build 0)  -->
<svg version="1.1" id="Layer_1" xmlns="http://www.w3.org/2000/svg" xmlns:xlink="http://www.w3.org/1999/xlink" x="0px" y="0px"
	 viewBox="0 0 1136.68 280.34" style="enable-background:new 0 0 1136.68 280.34;" xml:space="preserve">
<style type="text/css">
	.st0{display:none;}
	.st1{display:inline;}
	.st2{fill:#0000FF;}
	.st3{display:inline;fill:url(#SVGID_1_);}
	.st4{fill:#FFFFFF;}
</style>
<g class="st0">
	<g class="st1">
		<path class="st2" d="M1109.11,68.65c-5.09-3.03-10.73-4.55-16.9-4.55h-39.05v68.83h39.05c6.17,0,11.81-1.54,16.9-4.63
			s9.16-7.2,12.19-12.35c3.03-5.14,4.55-10.96,4.55-17.44c0-6.48-1.52-12.32-4.55-17.52C1118.27,75.81,1114.2,71.69,1109.11,68.65z"
			/>
		<path class="st2" d="M927.71-117.77c-126.13,0-230.31,93.94-246.4,215.67h28.48v16.36c5.35-6.38,11.91-11.42,19.68-15.12
			c7.77-3.7,16.18-5.56,25.23-5.56c11.01,0,21.14,2.65,30.4,7.95c9.26,5.3,16.61,12.32,22.07,21.07
			c5.45-8.74,12.73-15.77,21.84-21.07c9.11-5.3,19.16-7.95,30.17-7.95c11.42,0,21.81,2.78,31.18,8.33
			c9.36,5.56,16.82,13.02,22.38,22.38c5.56,9.36,8.33,19.75,8.33,31.17v96.77h-32.1v-88.59c0-6.79-1.65-13.01-4.94-18.67
			c-3.29-5.66-7.72-10.24-13.27-13.74c-5.56-3.5-11.73-5.25-18.52-5.25s-12.96,1.65-18.52,4.94c-5.56,3.29-9.98,7.77-13.27,13.43
			c-3.29,5.66-4.94,12.09-4.94,19.29v88.59h-32.1v-88.59c0-7.2-1.65-13.63-4.94-19.29c-3.29-5.66-7.74-10.13-13.35-13.43
			c-5.61-3.29-11.81-4.94-18.6-4.94c-6.69,0-12.84,1.75-18.44,5.25c-5.61,3.5-10.06,8.08-13.35,13.74
			c-3.29,5.66-4.94,11.88-4.94,18.67v86.78c42.28,76.85,124.02,128.92,217.92,128.92c137.28,0,248.56-111.28,248.56-248.56
			S1064.98-117.77,927.71-117.77z M987.11,252.23h-32.1V36.17h32.1V252.23z M1126.63,156.39c-9.47,5.76-19.86,8.64-31.17,8.64
			h-42.29v87.2h-32.1V36.17h74.39c11.63,0,22.15,2.88,31.56,8.64c9.41,5.76,16.92,13.53,22.53,23.3c5.61,9.78,8.41,20.58,8.41,32.41
			c0,12.04-2.85,22.92-8.57,32.64C1143.68,142.89,1136.09,150.63,1126.63,156.39z"/>
	</g>
	<linearGradient id="SVGID_1_" gradientUnits="userSpaceOnUse" x1="895.77" y1="-36.4303" x2="1001.049" y2="-36.4303">
		<stop  offset="0" style="stop-color:#EC796B"/>
		<stop  offset="1" style="stop-color:#E175B1"/>
	</linearGradient>
	<path class="st3" d="M895.79-68.91c1.27-2,44.01,12.97,48,12.52c4.17-0.47,35.11-35.75,36.57-34.66c1.09,0.82-12.97,46-11.85,49.82
		c1.61,5.46,33.27,36.38,32.54,37.29c-1.16,1.45-43.96-13.43-48.63-12.34c-3.9,0.91-33.39,35.2-34.84,34.48
		c-1.63-0.82,13.52-46.27,12.54-51.01C929.23-37.05,894.88-67.48,895.79-68.91z"/>
</g>
<g>
	<path class="st2" d="M214.28,273.77H73.9c-34.68,0-62.8-28.12-62.8-62.8V70.6c0-34.68,28.12-62.8,62.8-62.8h140.37
		c34.68,0,62.8,28.12,62.8,62.8v140.37C277.08,245.66,248.96,273.77,214.28,273.77z"/>
	<g>
		<g>
			<path class="st4" d="M95.75,214.75V103.05h18.77v13.96c3.95-5.21,8.92-9.36,14.91-12.46c5.99-3.09,12.53-4.64,19.6-4.64
				c8.27,0,15.82,2.01,22.68,6.03c6.85,4.02,12.25,9.35,16.2,15.97c3.95-6.63,9.33-11.95,16.14-15.97s14.32-6.03,22.51-6.03
				c8.41,0,16.05,2.03,22.9,6.09c6.85,4.06,12.31,9.51,16.36,16.36c4.06,6.85,6.09,14.49,6.09,22.9v69.48h-18.77v-65.01
				c0-5.51-1.34-10.61-4.02-15.3c-2.68-4.69-6.29-8.45-10.84-11.28c-4.54-2.83-9.57-4.25-15.08-4.25c-5.51,0-10.54,1.32-15.08,3.97
				c-4.54,2.64-8.15,6.29-10.84,10.95c-2.68,4.65-4.02,9.96-4.02,15.92v65.01h-18.77v-65.01c0-5.96-1.34-11.26-4.02-15.92
				c-2.68-4.65-6.31-8.3-10.89-10.95c-4.58-2.64-9.63-3.97-15.14-3.97c-5.44,0-10.44,1.42-15.02,4.25
				c-4.58,2.83-8.21,6.59-10.89,11.28c-2.68,4.69-4.02,9.79-4.02,15.3v65.01H95.75z"/>
			<path class="st2" d="M343.4,217.66c-10.28,0-19.64-2.64-28.09-7.93c-8.45-5.29-15.19-12.38-20.22-21.28
				c-5.03-8.9-7.54-18.75-7.54-29.55c0-8.19,1.45-15.84,4.36-22.96c2.9-7.11,6.91-13.37,12.01-18.77c5.1-5.4,11.04-9.62,17.82-12.68
				c6.78-3.05,14-4.58,21.67-4.58c8.41,0,16.14,1.69,23.18,5.08c7.04,3.39,13.07,8.1,18.1,14.13s8.79,13.03,11.28,21
				c2.49,7.97,3.41,16.5,2.74,25.58h-91.15c0.89,6.33,2.98,11.97,6.26,16.92c3.28,4.95,7.46,8.88,12.57,11.79
				c5.1,2.9,10.78,4.39,17.03,4.47c6.7,0,12.77-1.73,18.21-5.19c5.44-3.46,9.83-8.21,13.18-14.24l19.1,4.47
				c-4.47,9.9-11.21,18-20.22,24.29C364.66,214.51,354.57,217.66,343.4,217.66z M306.99,150.97h72.83
				c-0.6-6.26-2.61-11.97-6.03-17.15c-3.43-5.18-7.78-9.33-13.07-12.46c-5.29-3.13-11.06-4.69-17.31-4.69
				c-6.26,0-11.99,1.53-17.2,4.58c-5.21,3.05-9.51,7.17-12.9,12.34C309.91,138.78,307.8,144.57,306.99,150.97z"/>
			<path class="st2" d="M509.06,47.2h18.77v167.56h-18.77v-18.99c-3.8,6.55-8.9,11.84-15.3,15.86c-6.41,4.02-13.93,6.03-22.56,6.03
				c-8.12,0-15.71-1.53-22.79-4.58c-7.08-3.05-13.31-7.28-18.71-12.68c-5.4-5.4-9.63-11.63-12.68-18.71
				c-3.05-7.07-4.58-14.67-4.58-22.79c0-8.12,1.53-15.73,4.58-22.84c3.05-7.11,7.28-13.37,12.68-18.77
				c5.4-5.4,11.63-9.62,18.71-12.68c7.07-3.05,14.67-4.58,22.79-4.58c8.64,0,16.16,2.01,22.56,6.03c6.4,4.02,11.51,9.31,15.3,15.86
				V47.2z M471.41,199.45c7.37,0,13.76-1.8,19.16-5.42c5.4-3.61,9.57-8.51,12.51-14.69c2.94-6.18,4.41-12.99,4.41-20.44
				c0-7.6-1.49-14.47-4.47-20.61c-2.98-6.14-7.17-11.02-12.57-14.63c-5.4-3.61-11.75-5.42-19.05-5.42c-7.37,0-14.06,1.83-20.05,5.47
				c-6,3.65-10.78,8.55-14.35,14.69c-3.57,6.14-5.36,12.98-5.36,20.5c0,7.52,1.82,14.35,5.47,20.5c3.65,6.14,8.49,11.02,14.52,14.63
				C457.67,197.65,464.27,199.45,471.41,199.45z"/>
			<path class="st2" d="M564.24,84.84c-2.98,0-5.47-0.97-7.48-2.9c-2.01-1.94-3.02-4.36-3.02-7.26s1.01-5.32,3.02-7.26
				c2.01-1.94,4.47-2.9,7.37-2.9s5.36,0.97,7.37,2.9c2.01,1.94,3.02,4.36,3.02,7.26s-0.99,5.33-2.96,7.26
				C569.58,83.87,567.14,84.84,564.24,84.84z M554.63,103.05h18.77v111.71h-18.77V103.05z"/>
			<path class="st2" d="M649.36,217.66c-10.28,0-19.64-2.64-28.09-7.93c-8.45-5.29-15.19-12.38-20.22-21.28
				c-5.03-8.9-7.54-18.75-7.54-29.55c0-8.19,1.45-15.84,4.36-22.96c2.91-7.11,6.91-13.37,12.01-18.77
				c5.1-5.4,11.04-9.62,17.82-12.68c6.78-3.05,14-4.58,21.67-4.58c10.28,0,19.64,2.64,28.09,7.93c8.45,5.29,15.19,12.4,20.22,21.34
				c5.03,8.94,7.54,18.84,7.54,29.71c0,8.12-1.45,15.71-4.36,22.79c-2.9,7.08-6.91,13.31-12.01,18.71
				c-5.1,5.4-11.02,9.63-17.76,12.68C664.34,216.13,657.1,217.66,649.36,217.66z M649.36,198.89c7,0,13.31-1.84,18.93-5.53
				c5.62-3.69,10.05-8.56,13.29-14.63c3.24-6.07,4.86-12.68,4.86-19.83c0-7.3-1.66-14-4.97-20.11c-3.31-6.11-7.76-10.98-13.35-14.63
				c-5.58-3.65-11.84-5.47-18.77-5.47c-7,0-13.29,1.84-18.88,5.53c-5.58,3.69-10.02,8.58-13.29,14.69c-3.28,6.11-4.92,12.77-4.92,20
				c0,7.45,1.68,14.21,5.03,20.27c3.35,6.07,7.86,10.87,13.52,14.41C636.47,197.12,642.65,198.89,649.36,198.89z"/>
			<path class="st2" d="M725.32,214.75V47.2h18.77v167.56H725.32z"/>
			<path class="st2" d="M860.7,103.05h18.77v111.71H860.7l-0.78-18.88c-3.5,6.48-8.32,11.73-14.47,15.75s-13.46,6.03-21.95,6.03
				c-8.19,0-15.86-1.55-23.01-4.64c-7.15-3.09-13.46-7.37-18.93-12.85s-9.74-11.79-12.79-18.93c-3.05-7.15-4.58-14.86-4.58-23.12
				c0-7.97,1.49-15.49,4.47-22.56c2.98-7.07,7.13-13.27,12.46-18.6c5.32-5.32,11.49-9.5,18.49-12.51c7-3.02,14.52-4.52,22.56-4.52
				c8.79,0,16.49,2.07,23.12,6.2c6.63,4.13,11.99,9.48,16.09,16.03L860.7,103.05z M823.17,199.45c7.37,0,13.76-1.8,19.16-5.42
				c5.4-3.61,9.57-8.51,12.51-14.69c2.94-6.18,4.41-12.99,4.41-20.44c0-7.6-1.49-14.47-4.47-20.61
				c-2.98-6.14-7.17-11.02-12.57-14.63c-5.4-3.61-11.75-5.42-19.05-5.42c-7.37,0-14.08,1.83-20.11,5.47
				c-6.03,3.65-10.82,8.55-14.35,14.69c-3.54,6.14-5.31,12.98-5.31,20.5c0,7.52,1.82,14.35,5.47,20.5
				c3.65,6.14,8.49,11.02,14.52,14.63C809.43,197.65,816.02,199.45,823.17,199.45z"/>
			<path class="st2" d="M1000.56,145.27v69.48h-18.77v-65.35c0-5.66-1.38-10.8-4.13-15.42c-2.76-4.62-6.44-8.28-11.06-11
				c-4.62-2.72-9.76-4.08-15.42-4.08c-5.58,0-10.71,1.36-15.36,4.08c-4.66,2.72-8.36,6.39-11.12,11c-2.76,4.62-4.13,9.76-4.13,15.42
				v65.35h-18.77V103.05h18.77v13.96c3.95-5.21,8.94-9.36,14.97-12.46c6.03-3.09,12.58-4.64,19.66-4.64
				c8.34,0,15.95,2.03,22.84,6.09c6.89,4.06,12.36,9.51,16.42,16.36C998.53,129.23,1000.56,136.86,1000.56,145.27z"/>
			<path class="st2" d="M1072.05,217.66c-10.28,0-19.64-2.64-28.09-7.93c-8.45-5.29-15.19-12.38-20.22-21.28
				c-5.03-8.9-7.54-18.75-7.54-29.55c0-8.19,1.45-15.84,4.36-22.96c2.9-7.11,6.91-13.37,12.01-18.77c5.1-5.4,11.04-9.62,17.82-12.68
				c6.78-3.05,14-4.58,21.67-4.58c10.28,0,19.64,2.64,28.09,7.93c8.45,5.29,15.19,12.4,20.22,21.34c5.03,8.94,7.54,18.84,7.54,29.71
				c0,8.12-1.45,15.71-4.36,22.79c-2.9,7.08-6.91,13.31-12.01,18.71c-5.1,5.4-11.02,9.63-17.76,12.68
				C1087.03,216.13,1079.79,217.66,1072.05,217.66z M1072.05,198.89c7,0,13.31-1.84,18.93-5.53c5.62-3.69,10.05-8.56,13.29-14.63
				c3.24-6.07,4.86-12.68,4.86-19.83c0-7.3-1.66-14-4.97-20.11c-3.31-6.11-7.76-10.98-13.35-14.63c-5.58-3.65-11.84-5.47-18.77-5.47
				c-7,0-13.29,1.84-18.88,5.53c-5.58,3.69-10.02,8.58-13.29,14.69c-3.28,6.11-4.92,12.77-4.92,20c0,7.45,1.68,14.21,5.03,20.27
				c3.35,6.07,7.86,10.87,13.52,14.41C1059.16,197.12,1065.34,198.89,1072.05,198.89z"/>
		</g>
	</g>
</g>
</svg>
